# AST/ASF file generated using VICON BodyLanguage
# -----------------------------------------------
:version 1.10
:name VICON
:units
  mass 1.0
  length 0.45
  angle deg
:documentation
   .ast/.asf automatically generated from VICON data using
   VICON BodyBuilder and BodyLanguage model FoxedUp or BRILLIANT.MOD
:root
   order TX TY TZ RX RY RZ
   axis XYZ
   position 0 0 0  
   orientation 0 0 0 
:bonedata
  begin
     id 1 
     name lhipjoint
     direction 0.528046 -0.759594 0.379717 
     length 2.39752 
     axis 0 0 0  XYZ
  end
  begin
     id 2 
     name lfemur
     direction 0.34202 -0.939693 0  
     length 7.31175  
     axis 0 0 20  XYZ
    dof rx ry rz
    limits (-160.0 20.0)
           (-70.0 70.0)
           (-60.0 70.0)
  end
  begin
     id 3 
     name ltibia
     direction 0.34202 -0.939693 0   
     length 7.52482   
     axis 0 0 20   XYZ
    dof rx
    limits (-10.0 170.0)
  end
  begin
     id 4 
     name lfoot
     direction 0.0675379 -0.185559 0.980309   
     length 2.00961   
     axis -90 7.62852e-016 20   XYZ
    dof rx rz
    limits (-45.0 90.0)
           (-70.0 20.0)
  end
  begin
     id 5 
     name ltoes
     direction 1.5352e-011 -4.22286e-011 1   
     length 1.01383   
     axis -90 7.62852e-016 20   XYZ
    dof rx
    limits (-90.0 20.0)
  end
  begin
     id 6 
     name rhipjoint
     direction -0.510274 -0.769251 0.384544   
     length 2.36742  
     axis 0 0 0  XYZ 
  end
  begin
     id 7 
     name rfemur
     direction -0.34202 -0.939693 0   
     length 7.45325   
     axis 0 0 -20   XYZ
    dof rx ry rz
    limits (-160.0 20.0)
           (-70.0 70.0)
           (-70.0 60.0)
  end
  begin
     id 8 
     name rtibia
     direction -0.34202 -0.939693 0   
     length 7.49587   
     axis 0 0 -20   XYZ
    dof rx
    limits (-10.0 170.0)
 end
 begin
     id 9 
     name rfoot
     direction -0.106475 -0.292536 0.950308   
     length 2.20898  
     axis -90 -7.62852e-016 -20   XYZ
    dof rx rz
    limits (-45.0 90.0)
           (-20.0 70.0)
  end
  begin
     id 10 
     name rtoes
     direction -1.53597e-011 -4.22023e-011 1   
     length 1.10065   
     axis -90 -7.62852e-016 -20   XYZ
    dof rx
    limits (-90.0 20.0)
  end
  begin
     id 11 
     name lowerback
     direction 0.0260024 0.998026 -0.0571652   
     length 2.11214   
     axis 0 0 0   XYZ
    dof rx ry rz
    limits (-20.0 45.0)
           (-30.0 30.0)
           (-30.0 30.0)
  end
  begin
     id 12 
     name upperback
     direction 0.0216202 0.999542 -0.0211766   
     length 2.11689   
     axis 0 0 0   XYZ
    dof rx ry rz
    limits (-20.0 45.0)
           (-30.0 30.0)
           (-30.0 30.0)
  end
  begin
     id 13 
     name thorax
     direction 0.00883312 0.999944 0.00589057   
     length 2.11821   
     axis 0 0 0   XYZ
    dof rx ry rz
    limits (-20.0 45.0)
           (-30.0 30.0)
           (-30.0 30.0)
  end
  begin
     id 14 
     name lowerneck
     direction -0.059386 0.994433 0.0870401   
     length 1.81176   
     axis 0 0 0   XYZ
    dof rx ry rz
    limits (-20.0 45.0)
           (-30.0 30.0)
           (-30.0 30.0)
  end
  begin
     id 15 
     name upperneck
     direction 0.0506457 0.97328 -0.223967   
     length 1.82382   
     axis 0 0 0   XYZ
    dof rx ry rz
    limits (-20.0 45.0)
           (-30.0 30.0)
           (-30.0 30.0)
  end
  begin
     id 16
     name head
     direction 0.0205902 0.996147 -0.0852487  
     length 1.84805  
     axis 0 0 0   XYZ
    dof rx ry rz
    limits (-20.0 45.0)
           (-30.0 30.0)
           (-30.0 30.0)
  end
  begin
     id 17 
     name lclavicle
     direction 0.949493 0.303881 -0.0782325  
     length 3.60584  
     axis 0 0 0   XYZ
    dof ry rz
    limits (-20.0 10.0)
           (0.0 20.0)
  end
  begin
     id 18 
     name lhumerus
     direction 1 -4.48965e-011 1.48782e-027   
     length 4.95681   
     axis 180 -30 -90   XYZ
    dof rx ry rz
    limits (-60.0 90.0)
           (-90.0 90.0)
           (-90.0 90.0)
  end
  begin
     id 19
     name lradius
     direction 1 -4.48952e-011 2.06528e-027   
     length 3.40915   
     axis 180 -30 -90   XYZ
    dof rx
    limits (-10.0 170.0)
  end
  begin
     id 20
     name lwrist
     direction 1 -4.48964e-011 1.28021e-027   
     length 1.70457   
     axis -1.61767e-015 90 90   XYZ
    dof ry
    limits (-180.0 0.0)
 end
  begin
     id 21 
     name lhand
     direction 1 -4.49094e-011 2.54887e-027   
     length 0.616403   
     axis -1.63363e-015 90 90   XYZ
    dof rx rz
    limits (-90.0 90.0)
           (-45.0 45.0)
  end
  begin
     id 22 
     name lfingers
     direction 1 -4.49002e-011 5.11407e-027   
     length 0.49696   
     axis -3.26723e-015 90 90   XYZ
    dof rx
    limits (0.0 90.0)
  end
  begin
     id 23
     name lthumb
     direction 0.707107 -6.34998e-011 0.707107   
     length 0.713539   
     axis -90 45 -2.25915e-014   XYZ
    dof rx rz
    limits (-45.0 45.0)
           (-45.0 45.0)
  end
  begin
     id 24 
     name rclavicle
     direction -0.937751 0.334612 -0.0930482   
     length 3.46287  
     axis 0 0 0   XYZ 
    dof ry rz
    limits (-10.0 20.0)
           (-20.0 0.0)
  end
  begin
     id 25 
     name rhumerus
     direction -1 -4.48962e-011 3.59972e-027  
     length 5.352   
     axis 180 30 90   XYZ
    dof rx ry rz
    limits (-90.0 60.0)
           (-90.0 90.0)
           (-90.0 90.0)
  end
  begin
     id 26 
     name rradius
     direction -1 -4.48987e-011 -3.76925e-027   
     length 3.43721   
     axis 180 30 90   XYZ
    dof rx
    limits (-10.0 170.0)
  end
  begin
     id 27 
     name rwrist
     direction -1 -4.48943e-011 1.28112e-027   
     length 1.7186   
     axis -1.61767e-015 -90 -90   XYZ
    dof ry
    limits (-180.0 0.0)
  end
  begin
     id 28
     name rhand
     direction -1 -4.49027e-011 2.55483e-027   
     length 0.72009   
     axis -1.63363e-015 -90 -90   XYZ
    dof rx rz
    limits (-90.0 90.0)
           (-45.0 45.0)
  end
  begin
     id 29
     name rfingers
     direction -1 -4.48827e-011 5.14506e-027   
     length 0.580555   
     axis -3.26723e-015 -90 -90   XYZ
    dof rx
    limits (0.0 90.0)
  end
  begin
     id 30
     name rthumb
     direction -0.707107 -6.34936e-011 0.707107   
     length 0.833564   
     axis -90 -45 2.25915e-014   XYZ
    dof rx rz
    limits (-45.0 45.0)
           (-45.0 45.0)
  end
:hierarchy
  begin
    root lhipjoint rhipjoint lowerback
    lhipjoint lfemur
    lfemur ltibia
    ltibia lfoot
    lfoot ltoes
    rhipjoint rfemur
    rfemur rtibia
    rtibia rfoot
    rfoot rtoes
    lowerback upperback
    upperback thorax
    thorax lowerneck lclavicle rclavicle
    lowerneck upperneck
    upperneck head
    lclavicle lhumerus
    lhumerus lradius
    lradius lwrist
    lwrist lhand lthumb
    lhand lfingers
    rclavicle rhumerus
    rhumerus rradius
    rradius rwrist
    rwrist rhand rthumb
    rhand rfingers
  end

#!OML:ASF H:\Terrain\Patient Classification 1\Terrain2\Thursday\justin.ASF
:FULLY-SPECIFIED
:DEGREES
682
root 19.9657 23.8267 11.2186 -1.31957 1.33495 4.26172
lowerback 6.87067 -1.55595 -6.21664
upperback 2.76006 -2.44107 1.7916
thorax -0.644903 -1.27642 5.53081
lowerneck -13.2133 -1.70677 -8.93495
upperneck 38.9786 -1.42567 3.86761
head 16.2762 -1.40355 3.05267
rclavicle -3.05134e-014 -1.19271e-014
rhumerus -33.6998 -14.2214 -75.092
rradius 25.7045
rwrist -7.33914
rhand -17.8443 14.2964
rfingers 7.12502
rthumb 8.42059 -15.5158
lclavicle -3.05134e-014 -1.19271e-014
lhumerus -26.1194 -0.519511 84.8691
lradius 40.4063
lwrist 4.68863
lhand -13.4969 23.6402
lfingers 7.12502
lthumb 12.6142 53.2393
rfemur -33.2566 -10.3305 19.1305
rtibia 25.7652
rfoot 5.31266 -5.21428
rtoes 3.95899
lfemur 17.5936 2.32018 -25.439
ltibia -6.67916e-014
lfoot -2.85534 -21.7437
ltoes 31.3883
683
root 19.9541 23.8025 11.3464 -1.25903 1.34043 4.44993
lowerback 6.80665 -1.54288 -6.40534
upperback 2.69879 -2.43246 1.84304
thorax -0.662891 -1.27147 5.69043
lowerneck -13.1684 -1.73198 -8.90059
upperneck 38.9193 -1.3966 3.65909
head 16.2313 -1.41246 2.95664
rclavicle -2.56432e-014 2.70347e-014
rhumerus -33.7791 -14.0138 -75.0841
rradius 25.5767
rwrist -7.33076
rhand -17.7265 14.7703
rfingers 7.12502
rthumb 8.53433 -15.0372
lclavicle -2.56432e-014 2.70347e-014
lhumerus -26.3592 -0.474524 85.1511
lradius 39.9341
lwrist 4.24995
lhand -12.8391 23.323
lfingers 7.12502
lthumb 13.2483 52.8819
rfemur -33.3574 -10.5403 19.1924
rtibia 26.2452
rfoot 6.06238 -5.76028
rtoes 6.52217
lfemur 18.051 2.34454 -25.5898
ltibia 6.36111e-015
lfoot -3.34004 -21.6703
ltoes 29.6412
684
root 19.9437 23.7862 11.48 -1.29838 1.36828 4.6146
lowerback 6.76497 -1.54699 -6.53106
upperback 2.6898 -2.44269 1.90853
thorax -0.638473 -1.27868 5.82994
lowerneck -13.0334 -1.73816 -9.15336
upperneck 38.8458 -1.34624 3.67311
head 16.1607 -1.42446 3.01378
rclavicle -3.55825e-014 1.90833e-014
rhumerus -33.8093 -13.8551 -75.0398
rradius 25.4291
rwrist -7.05465
rhand -17.8588 15.0981
rfingers 7.12502
rthumb 8.40658 -14.7146
lclavicle -3.55825e-014 1.90833e-014
lhumerus -26.5363 -0.272612 85.4258
lradius 39.5025
lwrist 3.18012
lhand -10.1931 25.215
lfingers 7.12502
lthumb 15.7977 54.5904
rfemur -33.1906 -10.8265 19.2659
rtibia 26.754
rfoot 7.36257 -5.20808
rtoes -8.61622
lfemur 18.5777 2.35685 -25.7189
ltibia -6.99722e-014
lfoot -3.31544 -21.5844
ltoes 29.5714
685
root 19.9309 23.7731 11.6151 -1.33707 1.46416 4.66013
lowerback 6.63239 -1.59783 -6.49761
upperback 2.77676 -2.49771 1.93828
thorax -0.466265 -1.31536 5.83774
lowerneck -13.2613 -1.70719 -9.00993
upperneck 38.9545 -1.24162 3.47867
head 16.2621 -1.38826 2.92432
rclavicle 2.54444e-014 1.19271e-014
rhumerus -33.6737 -13.7366 -75.1762
rradius 25.3596
rwrist -6.85646
rhand -17.8544 15.1347
rfingers 7.12502
rthumb 8.41084 -14.6778
lclavicle 2.54444e-014 1.19271e-014
lhumerus -26.6287 -0.227819 85.6037
lradius 39.0753
lwrist 1.99822
lhand -12.6872 22.486
lfingers 7.12502
lthumb 13.3947 52.0354
rfemur -32.9545 -11.0979 19.4649
rtibia 27.3266
rfoot 8.34013 -3.21157
rtoes 4.09874
lfemur 19.1091 2.29612 -25.7212
ltibia 7.63333e-014
lfoot -3.31932 -21.5225
ltoes 29.2831
686
root 19.9141 23.7603 11.7495 -1.3073 1.54988 4.76857
lowerback 6.52142 -1.59376 -6.51297
upperback 2.76828 -2.48669 1.9067
thorax -0.415837 -1.31135 5.80823
lowerneck -13.3023 -1.70192 -8.78331
upperneck 39.0034 -1.23048 3.30497
head 16.2927 -1.3743 2.81041
rclavicle -1.66979e-014 1.51076e-014
rhumerus -33.7251 -13.7542 -75.272
rradius 25.2293
rwrist -6.70177
rhand -17.6953 15.1597
rfingers 7.12502
rthumb 8.56442 -14.6466
lclavicle -1.66979e-014 1.51076e-014
lhumerus -26.8889 -0.416834 85.7831
lradius 38.5066
lwrist 1.21612
lhand -14.0733 20.527
lfingers 7.12502
lthumb 12.0585 50.1595
rfemur -32.7981 -10.7862 19.3775
rtibia 28.0171
rfoot 8.23746 -1.29505
rtoes 10.7617
lfemur 19.6041 2.23759 -25.7802
ltibia 0
lfoot -3.54749 -21.4007
ltoes 27.8892
687
root 19.8972 23.7434 11.886 -1.34766 1.69329 4.97522
lowerback 6.54533 -1.60657 -6.6494
upperback 2.69879 -2.51544 1.86571
thorax -0.492478 -1.32154 5.84696
lowerneck -13.1372 -1.68645 -8.81658
upperneck 39.0405 -1.23765 3.36439
head 16.2723 -1.37516 2.84211
rclavicle -3.47873e-014 -1.03368e-014
rhumerus -33.9454 -13.6224 -75.362
rradius 25.1752
rwrist -6.508
rhand -17.6996 14.8895
rfingers 7.12502
rthumb 8.56026 -14.917
lclavicle -3.47873e-014 -1.03368e-014
lhumerus -27.3033 -0.4016 85.9694
lradius 38.0056
lwrist 0.172284
lhand -14.5127 19.5736
lfingers 7.12502
lthumb 11.6347 49.2306
rfemur -32.4916 -10.4547 19.1203
rtibia 28.6768
rfoot 7.5879 0.503879
rtoes 14.0439
lfemur 20.2024 2.13143 -25.9381
ltibia -4.77083e-014
lfoot -3.46162 -21.3143
ltoes 27.1854
688
root 19.8791 23.7252 12.0267 -1.44015 2.06477 5.35632
lowerback 6.60445 -1.72026 -7.01255
upperback 2.66516 -2.69409 1.82935
thorax -0.516393 -1.41158 6.02835
lowerneck -12.984 -1.64956 -9.00363
upperneck 39.0229 -1.20976 3.53911
head 16.2256 -1.36719 2.95674
rclavicle 2.67365e-014 3.18055e-015
rhumerus -34.1191 -13.4928 -75.4085
rradius 25.226
rwrist -6.22514
rhand -17.728 14.6367
rfingers 7.12502
rthumb 8.53283 -15.1708
lclavicle 2.67365e-014 3.18055e-015
lhumerus -27.6879 -0.212051 86.2201
lradius 37.4009
lwrist -1.47548
lhand -15.5837 18.6823
lfingers 7.12502
lthumb 10.6018 48.3949
rfemur -32.0367 -10.4514 18.6888
rtibia 29.2451
rfoot 6.57359 1.78018
rtoes 15.4808
lfemur 20.8591 1.81647 -26.3016
ltibia 5.725e-014
lfoot -2.9917 -21.1886
ltoes 27.7025
